<?xml version="1.0" encoding="iso-8859-1"?>
<!-- Generator: Adobe Illustrator 16.0.0, SVG Export Plug-In . SVG Version: 6.00 Build 0)  -->
<!DOCTYPE svg PUBLIC "-//W3C//DTD SVG 1.1//EN" "http://www.w3.org/Graphics/SVG/1.1/DTD/svg11.dtd">
<svg version="1.1" id="Capa_1" xmlns="http://www.w3.org/2000/svg" xmlns:xlink="http://www.w3.org/1999/xlink" x="0px" y="0px"
	 width="500px" height="500px" viewBox="51 736.073 500 500" style="enable-background:new 51 736.073 500 500;"
	 xml:space="preserve">
<path style="fill:#DDE8FF;" d="M128.864,883.141c1.188-3.296,1.659-7.043,1.154-11.432c-1.364-11.86-9.749-25.958-1.769-36.328
	c7.694-9.999,18.755-17.61,31.304-19.723c16.131-2.717,32.918-1.293,48.045-8.383c19.15-8.976,33.583-21.125,55.69-22.133
	c11.859-0.541,22.932,0.887,34.159,4.741c11.032,3.788,19.205,11.028,29.456,16.232c27.139,13.777,62.079,8.98,91.547,8.974
	c10.377-0.002,20.305,0.269,29.178,6.493c8.963,6.287,12.341,17.782,17.946,26.729c5.744,9.168,12.224,17.364,20.568,24.317
	c10.095,8.411,21.022,15.32,27.22,27.411c11.589,22.607-2.087,46.269-0.25,69.733c1.849,23.617,26.161,56.878,13,79.697
	c-6,10.403-13.288,16.352-14.692,29.004c-1.8,16.229,2.276,33.149-1.464,49.171c-10.789,46.229-64.957,50.98-102.702,62.308
	c-15.041,4.513-29.816,10.818-45.731,11.239c-15.651,0.415-29.791-5.781-44.963-8.593c-34.134-6.325-69.2-1.094-103.482-0.05
	c-30.579,0.931-66.598-15.028-79.666-44.863c-13.58-31.002,13.068-54.617,17.546-83.415c2.314-14.88-1.483-28.898-15.757-35.946
	c-13.517-6.674-29.008-4.589-42.891-10.015c-14.5-5.667-20.051-18.213-19.485-33.059c0.704-18.443,12.62-32.167,19.892-48.218
	c5.787-12.772,4.646-25.324,17.184-34.187C118.044,897.089,125.815,891.597,128.864,883.141z"/>
<g>
	<g style="opacity:0.5;">
		<g>
			<g>
				<path style="fill:#4574F1;" d="M96.192,968.244c-5.075,2.93-5.101,7.696-0.06,10.625l176.911,102.81L96.931,978.407
					c-4.601-2.675-4.575-7.027,0.055-9.702L344.279,825.93L96.192,968.244z"/>
			</g>
			<g>
				<path style="fill:#4574F1;" d="M304.792,1002.618c4.635-2.675,4.663-7.027,0.058-9.702l-19.875-11.551l-31.213,18.021
					c-5.074,2.93-13.308,2.93-18.349-0.002l-27.432-15.94c-5.042-2.93-5.011-7.698,0.063-10.627l22.807-13.169
					c5.079-2.931,13.306-2.931,18.347,0l35.779,20.792l133.25-76.931c4.635-2.676,4.659-7.026,0.054-9.703l-22.658-13.167
					c-5.041-2.93-5.015-7.7,0.061-10.629l55.214-30.958l-54.421,31.419c-4.634,2.676-4.658,7.03-0.055,9.706l22.66,13.168
					c5.041,2.93,5.018,7.698-0.056,10.627l-133.251,76.932l19.875,11.552c5.041,2.929,5.019,7.697-0.06,10.628l-107.635,61.219
					L304.792,1002.618z M248.397,960.107c-4.602-2.673-12.119-2.673-16.753,0.002l-22.808,13.169
					c-4.636,2.675-4.656,7.027-0.055,9.701l27.432,15.942c4.604,2.675,12.114,2.675,16.75,0l31.212-18.021L248.397,960.107
					L248.397,960.107z"/>
			</g>
			<g>
				<path style="fill:#4574F1;" d="M363.958,996.698c-5.073,2.929-5.101,7.695-0.056,10.627l22.262,12.937
					c4.602,2.675,4.577,7.027-0.055,9.702l-73.295,42.316c-4.635,2.675-12.151,2.675-16.753,0.002l-12.723-7.395
					c-4.601-2.673-4.576-7.027,0.059-9.702l55.419-31.998c0.221-0.128,0.223-0.335,0.004-0.462c-0.223-0.13-0.578-0.128-0.797,0
					l-55.421,31.998c-5.078,2.931-5.105,7.697-0.063,10.626l12.724,7.395c5.041,2.93,13.268,2.93,18.346-0.002l73.295-42.317
					c5.073-2.93,5.102-7.694,0.061-10.625l-22.263-12.938c-4.604-2.675-4.581-7.029,0.051-9.702l137.985-79.667
					c0.223-0.129,0.225-0.333,0.002-0.462c-0.217-0.127-0.572-0.129-0.797,0L363.958,996.698z"/>
			</g>
			<g>
				<path style="fill:#4574F1;" d="M468.648,1023.096c-5.072,2.931-5.101,7.695-0.056,10.629c4.602,2.673,4.577,7.027-0.058,9.702
					l-16.403,9.471c-0.221,0.127-0.221,0.335-0.004,0.462c0.219,0.128,0.578,0.128,0.797,0l16.405-9.471
					c5.076-2.931,5.104-7.697,0.063-10.627c-4.605-2.677-4.581-7.029,0.05-9.704l41.219-23.798c0.219-0.125,0.225-0.331,0.002-0.46
					c-0.219-0.127-0.578-0.127-0.797,0L468.648,1023.096z"/>
			</g>
			<g>
				<path style="fill:#4574F1;" d="M172.773,949.127c-5.074,2.929-5.101,7.695-0.056,10.626c4.601,2.675,4.576,7.028-0.059,9.706
					l-16.403,9.471c-0.221,0.127-0.221,0.335-0.004,0.462c0.219,0.125,0.578,0.125,0.798,0l16.404-9.473
					c5.078-2.932,5.105-7.698,0.064-10.627c-4.605-2.675-4.581-7.03,0.05-9.703l41.218-23.797c0.219-0.127,0.225-0.333,0.002-0.462
					c-0.218-0.127-0.577-0.127-0.797,0L172.773,949.127z"/>
			</g>
		</g>
		<g>
			<path style="fill:#4574F1;" d="M277.38,827.262c-0.223,0.129-0.221,0.335,0.002,0.463l51.282,29.803
				c0.219,0.127,0.574,0.128,0.797,0c0.221-0.127,0.221-0.335,0.004-0.461l-51.284-29.803
				C277.96,827.136,277.601,827.136,277.38,827.262z"/>
		</g>
	</g>
	<g>
		<path style="fill:#F8F8F8;" d="M136.736,922.782c-0.192,0.11-0.286,0.247-0.278,0.406c0.005,0.159,0.112,0.297,0.318,0.417
			l4,2.325l-4.046,2.336c-0.192,0.11-0.295,0.245-0.302,0.406c-0.011,0.157,0.082,0.294,0.273,0.406
			c0.193,0.112,0.424,0.17,0.702,0.174c0.276,0.004,0.517-0.054,0.724-0.174l4.046-2.336l3.997,2.321
			c0.208,0.122,0.445,0.183,0.712,0.182c0.267,0.001,0.498-0.056,0.69-0.167c0.195-0.114,0.288-0.247,0.283-0.406
			c-0.004-0.161-0.105-0.295-0.299-0.408l-3.998-2.323l4.044-2.334c0.195-0.112,0.295-0.249,0.295-0.413
			c-0.002-0.165-0.097-0.299-0.29-0.412c-0.191-0.112-0.424-0.167-0.698-0.161c-0.275,0.002-0.509,0.062-0.704,0.174l-4.043,2.334
			l-4-2.324c-0.207-0.12-0.445-0.183-0.721-0.187C137.166,922.617,136.932,922.667,136.736,922.782z"/>
	</g>
	<g>
		<path style="fill:#F8F8F8;" d="M272.698,876.286c-0.192,0.111-0.286,0.248-0.277,0.406c0.005,0.16,0.112,0.298,0.318,0.418
			l4,2.324l-4.047,2.336c-0.191,0.111-0.294,0.247-0.302,0.406c-0.009,0.158,0.082,0.295,0.273,0.406
			c0.195,0.113,0.425,0.17,0.704,0.175c0.275,0.003,0.515-0.056,0.722-0.175l4.048-2.336l3.996,2.323
			c0.209,0.121,0.445,0.182,0.713,0.181c0.266,0.001,0.497-0.056,0.688-0.167c0.196-0.113,0.29-0.246,0.284-0.406
			c-0.005-0.159-0.106-0.294-0.3-0.407l-3.997-2.323l4.044-2.334c0.194-0.113,0.294-0.25,0.295-0.413
			c-0.002-0.165-0.097-0.299-0.292-0.413c-0.191-0.111-0.424-0.167-0.696-0.162c-0.276,0.004-0.51,0.063-0.705,0.176l-4.044,2.334
			l-4-2.324c-0.206-0.12-0.445-0.182-0.72-0.186C273.128,876.122,272.894,876.173,272.698,876.286z"/>
	</g>
	<g>
		<g>
			<path style="fill:#F8F8F8;" d="M362.557,1055.194c-1.04-0.146-1.878,0.644-1.876,1.765c0.002,1.12,0.846,2.152,1.884,2.299
				c1.038,0.146,1.882-0.649,1.88-1.77C364.442,1056.367,363.596,1055.341,362.557,1055.194z"/>
		</g>
		<g>
			<path style="fill:#F8F8F8;" d="M357.624,1058.014c-1.038-0.146-1.876,0.644-1.874,1.764c0.002,1.121,0.844,2.151,1.882,2.297
				c1.04,0.148,1.884-0.646,1.882-1.768C359.512,1059.185,358.662,1058.159,357.624,1058.014z"/>
		</g>
		<g>
			<path style="fill:#F8F8F8;" d="M352.693,1060.831c-1.038-0.146-1.878,0.644-1.874,1.764c0.002,1.12,0.844,2.153,1.882,2.299
				c1.038,0.146,1.884-0.649,1.882-1.77S353.731,1060.977,352.693,1060.831z"/>
		</g>
	</g>
	<g>
		<g>
			<path style="fill:#F8F8F8;" d="M299.081,997.892c-0.828,0.477-0.833,1.251-0.01,1.729c0.821,0.479,2.157,0.479,2.985,0
				c0.827-0.478,0.833-1.252,0.01-1.729C301.243,997.412,299.908,997.412,299.081,997.892z"/>
		</g>
		<g>
			<path style="fill:#F8F8F8;" d="M294.15,1000.708c-0.829,0.479-0.833,1.252-0.01,1.73c0.822,0.478,2.158,0.478,2.986,0
				c0.827-0.479,0.831-1.251,0.009-1.73C296.313,1000.231,294.977,1000.231,294.15,1000.708z"/>
		</g>
		<g>
			<path style="fill:#F8F8F8;" d="M292.036,997.187c-0.828,0.479-0.832,1.251-0.009,1.729c0.821,0.478,2.157,0.478,2.985,0
				c0.827-0.479,0.832-1.251,0.009-1.729C294.2,996.709,292.863,996.709,292.036,997.187z"/>
		</g>
	</g>
	<g>
		<g>
			<path style="fill:#F8F8F8;" d="M394.183,857.701c-0.826,0.478-0.83,1.251-0.009,1.729c0.823,0.478,2.158,0.478,2.985,0
				c0.828-0.478,0.832-1.251,0.011-1.729C396.348,857.224,395.012,857.224,394.183,857.701z"/>
		</g>
		<g>
			<path style="fill:#F8F8F8;" d="M389.252,860.52c-0.826,0.478-0.832,1.251-0.009,1.729c0.822,0.478,2.158,0.478,2.985,0
				c0.828-0.478,0.832-1.251,0.009-1.729C391.416,860.042,390.081,860.042,389.252,860.52z"/>
		</g>
		<g>
			<path style="fill:#F8F8F8;" d="M387.139,856.997c-0.827,0.478-0.831,1.251-0.01,1.729c0.823,0.478,2.159,0.478,2.985,0
				c0.829-0.478,0.833-1.252,0.012-1.729C389.303,856.519,387.967,856.519,387.139,856.997z"/>
		</g>
	</g>
	<g>
		<g>
			<path style="fill:#F8F8F8;" d="M171.572,983.097c-0.828,0.478-0.832,1.252-0.01,1.73c0.823,0.478,2.159,0.478,2.986,0
				c0.828-0.479,0.832-1.251,0.01-1.73C173.735,982.62,172.4,982.62,171.572,983.097z"/>
		</g>
		<g>
			<path style="fill:#F8F8F8;" d="M166.64,985.914c-0.827,0.479-0.832,1.253-0.009,1.73c0.822,0.479,2.159,0.479,2.985,0
				c0.829-0.478,0.833-1.252,0.01-1.73C168.804,985.438,167.469,985.438,166.64,985.914z"/>
		</g>
		<g>
			<path style="fill:#F8F8F8;" d="M164.527,982.392c-0.828,0.479-0.832,1.254-0.01,1.73c0.823,0.477,2.159,0.477,2.986,0
				s0.832-1.251,0.01-1.73C166.69,981.915,165.355,981.915,164.527,982.392z"/>
		</g>
	</g>
	<g>
		<g>
			<path style="fill:#F8F8F8;" d="M392.772,932.498c-0.827,0.479-0.832,1.251-0.01,1.73c0.823,0.477,2.159,0.477,2.986,0
				c0.828-0.479,0.832-1.251,0.009-1.73C394.937,932.021,393.602,932.021,392.772,932.498z"/>
		</g>
		<g>
			<path style="fill:#F8F8F8;" d="M387.842,935.316c-0.827,0.477-0.833,1.251-0.01,1.729c0.821,0.479,2.159,0.479,2.985,0
				c0.827-0.477,0.833-1.251,0.01-1.729C390.006,934.837,388.67,934.837,387.842,935.316z"/>
		</g>
		<g>
			<path style="fill:#F8F8F8;" d="M385.728,931.794c-0.826,0.477-0.832,1.251-0.009,1.729c0.823,0.479,2.158,0.479,2.985,0
				c0.828-0.477,0.832-1.251,0.009-1.729C387.893,931.315,386.557,931.315,385.728,931.794z"/>
		</g>
	</g>
	<path style="opacity:0.2;fill:#2850CB;" d="M141.879,968.985c-6.897-4.11-18.048-4.11-24.901,0
		c-6.852,4.105-6.818,10.769,0.081,14.879c6.902,4.109,18.047,4.109,24.905,0C148.817,979.754,148.782,973.091,141.879,968.985z"/>
	<g>
		<g>
			<g>
				<g>
					<polygon style="opacity:0.2;fill:#2850CB;" points="443.667,1024.726 422.299,1036.679 370.459,1006.749 389.699,994.009 					
						"/>
				</g>
				<g>
					<g style="enable-background:new    ;">
						<g>
							<polygon style="fill:#F8F8F8;" points="374.76,950.575 374.624,998.229 426.464,1028.159 426.599,980.504 							"/>
						</g>
						<g>
							<polygon style="fill:#EDF0F1;" points="374.76,950.575 375.903,949.91 427.743,979.839 426.599,980.504 							"/>
						</g>
						<g>
							<polygon style="fill:#DBDDDD;" points="426.599,980.504 427.743,979.839 427.607,1027.493 426.464,1028.159 							"/>
						</g>
						<g>
							<g>
								<linearGradient id="SVGID_1_" gradientUnits="userSpaceOnUse" x1="374.7598" y1="962.5615" x2="426.6152" y2="962.5615">
									<stop  offset="2.100000e-007" style="stop-color:#4B9AEA"/>
									<stop  offset="1" style="stop-color:#305FF2"/>
								</linearGradient>
								<path style="fill:url(#SVGID_1_);" d="M374.776,944.618l51.839,29.93l-0.017,5.957l-51.839-29.93L374.776,944.618z
									 M378.65,951.494c0.796,0.459,1.443,0.093,1.446-0.821c0.002-0.915-0.641-2.029-1.437-2.488
									c-0.796-0.459-1.443-0.09-1.445,0.824C377.211,949.924,377.854,951.035,378.65,951.494L378.65,951.494z M386.715,956.15
									c0.795,0.459,1.443,0.093,1.445-0.821c0.003-0.915-0.641-2.029-1.437-2.488s-1.44-0.089-1.443,0.826
									C385.277,954.581,385.919,955.69,386.715,956.15L386.715,956.15z M382.684,953.823c0.793,0.458,1.441,0.092,1.443-0.822
									c0.003-0.915-0.641-2.029-1.434-2.487c-0.796-0.459-1.443-0.09-1.446,0.824
									C381.245,952.252,381.888,953.363,382.684,953.823L382.684,953.823z"/>
							</g>
							<g>
								<polygon style="fill:#2850CB;" points="374.776,944.618 375.92,943.953 427.76,973.883 426.615,974.548 								"/>
							</g>
							<g>
								<polygon style="fill:#2850CB;" points="426.615,974.548 427.76,973.883 427.743,979.839 426.599,980.504 								"/>
							</g>
							<g>
								<g>
									<path style="fill:#FFAA00;" d="M382.693,950.514c0.793,0.458,1.437,1.572,1.434,2.487c-0.002,0.915-0.65,1.28-1.443,0.822
										c-0.796-0.459-1.438-1.571-1.437-2.485C381.25,950.423,381.897,950.055,382.693,950.514z"/>
								</g>
								<g>
									<path style="fill:#4BBB9C;" d="M386.724,952.841c0.796,0.459,1.439,1.574,1.437,2.488c-0.002,0.914-0.65,1.28-1.445,0.821
										c-0.796-0.459-1.438-1.569-1.435-2.483C385.283,952.752,385.928,952.381,386.724,952.841z"/>
								</g>
								<g>
									<path style="fill:#DC4D3F;" d="M378.66,948.185c0.796,0.459,1.439,1.574,1.437,2.488c-0.003,0.914-0.65,1.28-1.446,0.821
										c-0.795-0.459-1.439-1.57-1.436-2.485C377.217,948.095,377.864,947.726,378.66,948.185z"/>
								</g>
							</g>
						</g>
					</g>
				</g>
			</g>
			<g>
				<g>
					<path style="fill:#E2E6F2;" d="M410.716,1002.114c0.438,0.253,0.793,0.865,0.791,1.371c-0.001,0.504-0.356,0.707-0.796,0.453
						l-2.383-1.375c-0.435-0.252-0.793-0.867-0.791-1.371c0.001-0.505,0.361-0.705,0.796-0.454L410.716,1002.114z"/>
				</g>
				<g>
					<path style="fill:#E2E6F2;" d="M410.705,1005.763c0.439,0.254,0.793,0.867,0.791,1.371c-0.001,0.506-0.356,0.708-0.796,0.454
						l-2.382-1.376c-0.436-0.25-0.793-0.865-0.792-1.37c0.002-0.505,0.362-0.704,0.797-0.454L410.705,1005.763z"/>
				</g>
				<g>
					<path style="fill:#E2E6F2;" d="M419.439,1010.807c0.439,0.253,0.793,0.865,0.792,1.37c-0.002,0.505-0.357,0.707-0.797,0.453
						l-5.559-3.207c-0.439-0.254-0.793-0.867-0.791-1.371c0.001-0.506,0.357-0.709,0.797-0.455L419.439,1010.807z"/>
				</g>
				<g>
					<path style="fill:#E2E6F2;" d="M419.45,1007.157c0.438,0.252,0.793,0.865,0.791,1.37c-0.001,0.505-0.356,0.707-0.796,0.454
						l-5.559-3.209c-0.439-0.254-0.793-0.867-0.792-1.371c0.002-0.504,0.357-0.707,0.797-0.454L419.45,1007.157z"/>
				</g>
				<g>
					<path style="fill:#E2E6F2;" d="M419.461,1003.507c0.438,0.254,0.792,0.866,0.79,1.371c-0.001,0.5-0.356,0.707-0.796,0.453
						l-12.704-7.334c-0.436-0.252-0.793-0.871-0.792-1.371c0.002-0.505,0.361-0.705,0.797-0.454L419.461,1003.507z"/>
				</g>
				<g>
					<path style="fill:#E2E6F2;" d="M403.58,994.338c0.439,0.254,0.793,0.866,0.791,1.371c-0.002,0.5-0.357,0.708-0.797,0.454
						l-0.794-0.459c-0.435-0.25-0.793-0.871-0.791-1.371c0.001-0.504,0.361-0.705,0.797-0.453L403.58,994.338z"/>
				</g>
				<g>
					<path style="fill:#E2E6F2;" d="M405.157,998.905c0.439,0.253,0.793,0.865,0.792,1.37c-0.002,0.505-0.357,0.708-0.797,0.454
						l-0.795-0.459c-0.435-0.25-0.792-0.865-0.791-1.37c0.002-0.505,0.362-0.706,0.797-0.454L405.157,998.905z"/>
				</g>
				<g>
					<path style="fill:#E2E6F2;" d="M405.147,1002.554c0.438,0.254,0.793,0.866,0.791,1.371s-0.357,0.707-0.797,0.455l-0.794-0.459
						c-0.435-0.252-0.793-0.866-0.792-1.371c0.002-0.504,0.362-0.705,0.798-0.453L405.147,1002.554z"/>
				</g>
			</g>
			<polygon style="fill:#C6E7FC;" points="382.599,979.877 382.56,993.962 399.409,1003.69 399.449,989.605 			"/>
		</g>
	</g>
	<g>
		<g style="enable-background:new    ;">
			<g>
				<path style="fill:#F8F8F8;" d="M134.111,955.174c0.243,0.14,0.488,0.38,0.685,0.692c0.431,0.679,0.478,1.466,0.097,1.743
					l-7.888,5.868c-0.198,0.149-0.484,0.135-0.789-0.04c-0.341-0.211-0.633-0.548-0.82-0.941l-4.448-9.21
					c-0.351-0.729-0.266-1.431,0.189-1.575c0.192-0.058,0.417-0.011,0.639,0.118c0.312,0.18,0.619,0.519,0.824,0.943l3.673,7.606
					l7.052-5.245C133.53,954.978,133.819,955.006,134.111,955.174z"/>
			</g>
			<path style="fill:#FAC240;" d="M131.793,937.507c-4.237-2.445-8.075-2.671-10.847-1.061l-4.143,2.407
				c2.772-1.61,6.611-1.384,10.848,1.061c8.424,4.866,15.239,16.665,15.212,26.349c-0.013,4.81-1.713,8.192-4.452,9.784l4.143-2.407
				c2.739-1.592,4.438-4.975,4.452-9.784C147.033,954.172,140.218,942.372,131.793,937.507z"/>
			<g>
				<path style="fill:#FFAA00;" d="M127.651,939.914c8.424,4.866,15.239,16.665,15.212,26.349
					c-0.028,9.681-6.888,13.586-15.313,8.723c-8.423-4.865-15.228-16.658-15.2-26.338
					C112.378,938.962,119.227,935.051,127.651,939.914z M134.893,957.61c0.381-0.277,0.334-1.064-0.097-1.743
					c-0.196-0.313-0.441-0.552-0.685-0.692c-0.292-0.168-0.581-0.196-0.786-0.041l-7.052,5.245l-3.673-7.606
					c-0.205-0.424-0.512-0.763-0.824-0.943c-0.223-0.129-0.447-0.176-0.639-0.118c-0.455,0.144-0.54,0.846-0.189,1.575l4.448,9.21
					c0.187,0.393,0.479,0.729,0.79,0.918c0.334,0.197,0.62,0.211,0.818,0.062L134.893,957.61L134.893,957.61z"/>
			</g>
		</g>
	</g>
	<g>
		<g>
			<polygon style="fill:#FFAA00;" points="383.001,976.788 383.055,958.008 405.521,970.979 405.468,989.759 			"/>
			<g style="enable-background:new    ;">
				<defs>
					<polygon id="SVGID_2_" style="enable-background:new    ;" points="383.001,976.788 383.055,958.008 420.251,978.905 
						420.251,998.051 					"/>
				</defs>
				<use xlink:href="#SVGID_2_"  style="overflow:visible;fill:#FFAA00;"/>
				<clipPath id="SVGID_3_">
					<use xlink:href="#SVGID_2_"  style="overflow:visible;"/>
				</clipPath>
				<polygon style="clip-path:url(#SVGID_3_);fill:#FFAA00;" points="383.055,958.008 383.001,976.788 405.468,989.759 
					405.521,970.979 				"/>
			</g>
		</g>
	</g>
	<g>
		<g>
			<g>
				<polygon style="fill:#2F61DD;" points="202.922,947.237 202.922,1005.765 203.384,1007.263 206.271,1016.603 207.285,1019.886 
					208.299,1016.603 211.186,1007.263 211.651,1005.765 211.651,947.237 				"/>
				<polygon style="fill:#2850CB;" points="207.285,947.237 207.285,1019.886 208.299,1016.603 211.186,1007.263 211.651,1005.765 
					211.651,947.237 				"/>
			</g>
			<g>
				<path style="fill:#F2F2F2;" d="M201.469,949.463v2.91h13.092c0.802,0,1.453,0.651,1.453,1.454v24.73h2.91v-24.73
					c0-2.41-1.953-4.363-4.363-4.363H201.469z"/>
				<rect x="202.922" y="975.647" style="fill:#F2F2F2;" width="8.728" height="2.91"/>
				<rect x="202.922" y="1004.741" style="fill:#F2F2F2;" width="8.728" height="2.91"/>
			</g>
			<polygon style="fill:#2850CB;" points="206.271,1016.704 207.285,1019.886 208.299,1016.704 			"/>
		</g>
		<path style="fill:none;stroke:#2850CB;stroke-width:2;stroke-linecap:round;stroke-linejoin:round;stroke-miterlimit:10;" d="
			M201.469,949.463h1.453v-2.227h4.363h4.366v2.227h2.91c2.41,0,4.363,1.954,4.363,4.363v24.73h-2.91v-24.73
			c0-0.802-0.651-1.454-1.453-1.454h-2.91v53.392h-0.001v1.887h-0.584l-2.767,8.951l-0.031,0.102h0.031l-1.014,3.182l-1.014-3.182
			h0.031l-0.031-0.102l-2.768-8.951h-0.582v-1.887l0,0v-53.392h-1.453V949.463z"/>
		<g>
			<path style="fill:none;stroke:#2850CB;stroke-linecap:round;stroke-linejoin:round;stroke-miterlimit:10;" d="M201.469,949.463
				v2.91h13.092c0.802,0,1.453,0.651,1.453,1.454v24.73h2.91v-24.73c0-2.41-1.953-4.363-4.363-4.363H201.469z"/>
			
				<rect x="202.922" y="975.647" style="fill:none;stroke:#2850CB;stroke-linecap:round;stroke-linejoin:round;stroke-miterlimit:10;" width="8.728" height="2.91"/>
			
				<rect x="202.922" y="1004.741" style="fill:none;stroke:#2850CB;stroke-linecap:round;stroke-linejoin:round;stroke-miterlimit:10;" width="8.728" height="2.91"/>
		</g>
	</g>
	<g>
		<g>
			<g>
				<path style="fill:#FFFFFF;" d="M353.049,838.128c0-1.255-1.027-2.284-2.283-2.284h-95.032c-1.257,0-2.285,1.028-2.285,2.284
					v127.311h99.807L353.049,838.128z"/>
				<path style="fill:#E2E6F2;" d="M265.914,835.844h-10.18c-1.257,0-2.285,1.028-2.285,2.284v127.311h10.18V838.128
					C263.628,836.872,264.657,835.844,265.914,835.844z"/>
			</g>
			<path style="fill:#FF3131;" d="M278.206,875.219c-1.042,0-2.034-0.45-2.722-1.234l-5.787-6.61
				c-1.315-1.504-1.164-3.789,0.34-5.104c1.502-1.316,3.787-1.164,5.104,0.339l3.065,3.502l4.874-5.568
				c1.315-1.503,3.601-1.655,5.104-0.339c1.504,1.316,1.656,3.602,0.34,5.104l-7.596,8.677
				C280.241,874.769,279.25,875.219,278.206,875.219z"/>
			<path style="fill:#FF3131;" d="M278.206,904.968c-1.042,0-2.034-0.449-2.722-1.233l-5.787-6.61
				c-1.315-1.503-1.164-3.788,0.34-5.104c1.503-1.315,3.788-1.163,5.104,0.339l3.065,3.502l4.874-5.568
				c1.315-1.502,3.601-1.654,5.104-0.339c1.504,1.316,1.656,3.602,0.34,5.104l-7.596,8.677
				C280.241,904.519,279.25,904.968,278.206,904.968z"/>
			<path style="fill:#FF3131;" d="M278.206,934.718L278.206,934.718c-1.042,0-2.034-0.45-2.722-1.234l-5.787-6.61
				c-1.315-1.504-1.164-3.789,0.34-5.104c1.502-1.316,3.787-1.163,5.104,0.339l3.065,3.502l4.874-5.567
				c1.315-1.504,3.601-1.655,5.104-0.34c1.504,1.316,1.656,3.602,0.34,5.104l-7.596,8.677
				C280.241,934.268,279.25,934.718,278.206,934.718z"/>
			<path style="fill:#DDE8FF;" d="M310.158,854.639h-12.997c-1.539,0-2.787,1.248-2.787,2.787l0,0c0,1.54,1.248,2.788,2.787,2.788
				h12.997c1.539,0,2.789-1.248,2.789-2.788l0,0C312.947,855.887,311.697,854.639,310.158,854.639z"/>
			<path style="fill:#DDE8FF;" d="M333.27,953.684L333.27,953.684c0-1.54-1.248-2.788-2.787-2.788h-32.114
				c-1.54,0-2.787,1.248-2.787,2.787v0.001c0,1.539,1.247,2.787,2.787,2.787h32.114C332.021,956.471,333.27,955.223,333.27,953.684z
				"/>
			<path style="fill:#DDE8FF;" d="M340.934,864.746h-43.772c-1.539,0-2.787,1.248-2.787,2.788l0,0c0,1.539,1.248,2.787,2.787,2.787
				h43.772c1.539,0,2.787-1.248,2.787-2.787l0,0C343.721,865.994,342.473,864.746,340.934,864.746z"/>
			<path style="fill:#DDE8FF;" d="M307.512,943.577L307.512,943.577c0-1.54-1.248-2.788-2.787-2.788h-6.356
				c-1.54,0-2.787,1.248-2.787,2.788l0,0c0,1.539,1.247,2.788,2.787,2.788h6.356C306.264,946.365,307.512,945.116,307.512,943.577z"
				/>
			<path style="fill:#DDE8FF;" d="M322.34,874.852h-25.178c-1.539,0-2.787,1.248-2.787,2.788l0,0c0,1.54,1.248,2.787,2.787,2.787
				h25.178c1.541,0,2.789-1.247,2.789-2.787l0,0C325.129,876.1,323.881,874.852,322.34,874.852z"/>
			<path style="fill:#DDE8FF;" d="M317.324,933.47L317.324,933.47c0-1.54-1.248-2.788-2.787-2.788h-16.168
				c-1.54,0-2.787,1.248-2.787,2.788l0,0c0,1.539,1.247,2.787,2.787,2.787h16.168C316.076,936.257,317.324,935.009,317.324,933.47z"
				/>
			<path style="fill:#DDE8FF;" d="M344.418,884.959h-47.256c-1.539,0-2.787,1.248-2.787,2.787v0.001
				c0,1.539,1.248,2.787,2.787,2.787h47.256c1.541,0,2.789-1.248,2.789-2.787v-0.001
				C347.207,886.208,345.959,884.959,344.418,884.959z"/>
			<path style="fill:#DDE8FF;" d="M310.133,923.363L310.133,923.363c0-1.539-1.248-2.788-2.787-2.788h-8.977
				c-1.54,0-2.787,1.249-2.787,2.788l0,0c0,1.54,1.247,2.788,2.787,2.788h8.977C308.885,926.151,310.133,924.903,310.133,923.363z"
				/>
			<path style="fill:#DDE8FF;" d="M334.801,895.066h-37.639c-1.539,0-2.787,1.248-2.787,2.788l0,0c0,1.539,1.248,2.787,2.787,2.787
				h37.639c1.539,0,2.789-1.248,2.789-2.787l0,0C337.59,896.314,336.34,895.066,334.801,895.066z"/>
			<path style="fill:#DDE8FF;" d="M314.23,913.256L314.23,913.256c0-1.54-1.248-2.788-2.787-2.788h-13.075
				c-1.54,0-2.787,1.248-2.787,2.788l0,0c0,1.539,1.247,2.787,2.787,2.787h13.075C312.982,916.043,314.23,914.795,314.23,913.256z"
				/>
		</g>
		<path style="fill:none;stroke:#2850CB;stroke-width:2;stroke-linecap:round;stroke-linejoin:round;stroke-miterlimit:10;" d="
			M353.049,838.128c0-1.255-1.027-2.284-2.283-2.284h-84.852h-10.18c-1.257,0-2.285,1.028-2.285,2.284v127.31h10.18h89.627
			L353.049,838.128z"/>
	</g>
	<path style="opacity:0.5;fill:#2850CB;" d="M214.787,895.769l-22.626-14.248l-2.284,1.438l-41.234,25.965l0.001,0.001
		c-0.145,0.092-0.272,0.217-0.371,0.372c-0.358,0.57-0.187,1.32,0.381,1.678l4.023,2.533l-4.395,2.767l0.006,0.004
		c-0.854,0.527-1.345,1.538-1.345,2.806c0,1.257,0.473,2.659,1.224,3.852c0.574,0.912,1.312,1.702,2.125,2.214l20.061,12.633
		c1.871,1.179,3.705,1.383,5.164,0.578c0.116-0.064,0.227-0.136,0.334-0.21l38.933-24.503c2.767-1.742,4.935-5.669,4.935-8.94
		C219.722,901.438,217.554,897.512,214.787,895.769z"/>
	<g>
		<path style="fill:#D5D9EC;" d="M156.628,907.315l20.694,13.031l-0.633-6.97c3.059,1.927,5.562,6.459,5.562,10.074
			s-2.503,4.997-5.562,3.07l-20.061-12.631c-1.529-0.964-2.781-3.23-2.781-5.038C153.847,907.043,155.099,906.353,156.628,907.315z"
			/>
		<polygon style="fill:#E2E6F2;" points="197.704,878.502 215.904,897.487 177.97,921.375 153.969,906.041 		"/>
		<path style="fill:#F8F8F8;" d="M154.077,905.979c0.918-0.507,2.084-0.396,3.2,0.306l20.693,13.031
			c0.569,0.358,0.739,1.109,0.381,1.678c-0.358,0.569-1.109,0.739-1.678,0.381l-20.693-13.031c-0.404-0.254-0.668-0.269-0.728-0.236
			c-0.059,0.033-0.188,0.265-0.188,0.742c0,1.393,1.034,3.266,2.212,4.008l20.061,12.632c1.072,0.675,2.053,0.859,2.691,0.507
			c0.639-0.353,1.005-1.282,1.005-2.548c0-3.198-2.287-7.34-4.993-9.043l-21.7-13.665c-0.568-0.358-0.739-1.11-0.381-1.678
			c0.098-0.155,0.226-0.28,0.371-0.374l-0.001-0.001l41.234-25.965l2.283-1.438l22.626,14.248c2.768,1.742,4.935,5.669,4.935,8.94
			c0,3.269-2.167,7.196-4.935,8.939l-38.933,24.502c-0.108,0.076-0.219,0.147-0.335,0.211c-1.459,0.805-3.293,0.599-5.164-0.579
			l-20.061-12.632c-0.814-0.513-1.551-1.304-2.125-2.215c-0.751-1.193-1.224-2.594-1.224-3.852
			C152.631,907.533,153.158,906.486,154.077,905.979z"/>
		<g>
			<path style="fill:#E2E6F2;" d="M169.266,900.209c0.222,0,0.446-0.061,0.647-0.188l28.474-17.93
				c0.568-0.358,0.739-1.109,0.381-1.678c-0.358-0.568-1.109-0.739-1.678-0.381l-28.474,17.93c-0.569,0.358-0.739,1.109-0.381,1.678
				C168.466,900.008,168.862,900.209,169.266,900.209z"/>
			<path style="fill:#E2E6F2;" d="M174.192,903.479c0.221,0,0.444-0.06,0.645-0.185l12.029-7.543
				c0.569-0.356,0.741-1.107,0.385-1.676c-0.357-0.57-1.108-0.742-1.678-0.384l-12.028,7.542c-0.569,0.358-0.742,1.108-0.384,1.678
				C173.391,903.277,173.788,903.479,174.192,903.479z"/>
			<linearGradient id="SVGID_4_" gradientUnits="userSpaceOnUse" x1="192.1699" y1="898.2866" x2="171.6776" y2="908.4323">
				<stop  offset="2.100000e-007" style="stop-color:#4B9AEA"/>
				<stop  offset="1" style="stop-color:#305FF2"/>
			</linearGradient>
			<path style="fill:url(#SVGID_4_);" d="M179.119,906.75c0.22,0,0.443-0.06,0.643-0.186l12.121-7.568
				c0.569-0.356,0.744-1.107,0.388-1.676c-0.355-0.57-1.106-0.744-1.676-0.388l-12.121,7.568c-0.57,0.356-0.743,1.107-0.388,1.676
				C178.316,906.546,178.713,906.75,179.119,906.75z"/>
		</g>
		<polygon style="fill:#FFAA00;" points="190.829,891.029 203.891,882.558 215.011,889.802 201.75,898.331 		"/>
		<g>
			<linearGradient id="SVGID_5_" gradientUnits="userSpaceOnUse" x1="198.1567" y1="900.2695" x2="169.2769" y2="917.3463">
				<stop  offset="2.100000e-007" style="stop-color:#4B9AEA"/>
				<stop  offset="1" style="stop-color:#305FF2"/>
			</linearGradient>
			<path style="fill:url(#SVGID_5_);" d="M184.045,910.019c0.219,0,0.441-0.059,0.642-0.184l12.214-7.593
				c0.57-0.354,0.746-1.105,0.391-1.676c-0.354-0.57-1.104-0.746-1.676-0.391l-12.214,7.595c-0.571,0.355-0.745,1.105-0.391,1.675
				C183.241,909.816,183.639,910.019,184.045,910.019z"/>
			<path style="fill:#E2E6F2;" d="M187.388,914.294c0.22,0,0.441-0.06,0.642-0.184l30.146-18.743
				c0.57-0.355,0.746-1.105,0.391-1.676c-0.354-0.571-1.105-0.746-1.675-0.391l-30.146,18.744c-0.571,0.355-0.746,1.105-0.391,1.676
				C186.584,914.091,186.981,914.294,187.388,914.294z"/>
		</g>
	</g>
</g>
<g>
	<g>
		<path style="fill:#2852D5;" d="M369.573,1141.494c0,0,34.549-17.479,84.83-1.646
			C428.8,1143.962,374.715,1142.522,369.573,1141.494z"/>
	</g>
	<g>
		<path style="fill:#2852D5;" d="M131.471,1146.188c0,0,34.549-17.48,84.829-1.646
			C190.697,1148.655,136.612,1147.216,131.471,1146.188z"/>
	</g>
	<g>
		<path style="fill:#3360DF;" d="M377.137,1132.451c0,0,40.08-32.027,79.73-14.079
			C428.006,1135.229,396.666,1138.078,377.137,1132.451z"/>
	</g>
	<g>
		<path style="fill:#3360DF;" d="M129.752,1123.417c0,0,49.898-11.928,78.143,21.188
			C174.604,1147.577,145.031,1136.819,129.752,1123.417z"/>
	</g>
	<g>
		<g>
			<path style="fill:#2852D5;" d="M211.35,1150.365c0,0-81.25-71.333-59.483-134.167
				C200.53,1044.666,211.35,1150.365,211.35,1150.365z"/>
		</g>
		<g>
			<path style="fill:#3361DF;" d="M223.122,1148.215c0,0-61.755-0.948-108.597-83.944
				C157.317,1075.32,207.682,1108.651,223.122,1148.215z"/>
		</g>
	</g>
	<g>
		<path style="fill:#2852D5;" d="M383.515,1137.134c0,0,40.991-58.911,104.61-57.973
			C459.477,1115.888,409.806,1134.044,383.515,1137.134z"/>
	</g>
	<g>
		<path style="fill:#3361DF;" d="M353.526,1152.449c0,0,6.681-101.194,126.652-118.125
			C472.8,1065.288,433.64,1116.027,353.526,1152.449z"/>
	</g>
	<g>
		<g>
			<g>
				<path style="fill:#FFA515;" d="M253.507,1080.498l-1.878-7.557c-1.921-7.73-1.129-15.886,2.243-23.103l12.764-27.31l12.22,3.838
					l-11.311,50.596l-0.606,3.03L253.507,1080.498z"/>
			</g>
			<g>
				<path style="fill:#0C1B84;" d="M311.104,1042.634c-16.083-14.091-21.408-21.55-23.129-26.374
					c-0.167-0.463-0.303-0.901-0.401-1.32c-1.018-4.047,0.481-6.133-1.246-9.47c-0.512-0.994-1.382-1.833-2.449-2.592
					c-6.774-4.812-21.772-6.49-8.119-24.271c5.787-7.545,7.842-29.329,28.2-23.659c3.505-1.191,19.779-3.702,23.302,15.238
					c3.998,21.507-2.541,16.188,9.772,20.205c8.391,2.739,5.041,11.037,5.849,22.617c0.809,11.579,26.387,6.489,27.467,25.608
					C371.422,1057.736,343.69,1071.18,311.104,1042.634z"/>
			</g>
			<g>
				<path style="fill:#050C57;" d="M339.105,1033.68c-8.511,5.644-2.872-24.924-21.957-13.609
					c-16.825-7.26-32.172-28.52-32.172-28.52s18.89-4.009,31.463-12.646C327.598,979.7,300.684,1010.084,339.105,1033.68z"/>
			</g>
			<g>
				<g>
					<g>
						<g>
							<path style="fill:#F9C5C8;" d="M285.828,992.038c-0.031,0.013-0.068,0.025-0.099,0.037c-1.82,0.636-4.109-2.048-5.164-4.559
								c-1.08-2.554-0.462-5.25,1.363-6.021c0.611-0.259,1.284-0.266,1.943-0.074h0.013c1.314,0.395,2.597,1.604,3.307,3.301
								C288.271,987.275,287.654,991.268,285.828,992.038z"/>
						</g>
					</g>
					<g>
						<g>
							<path style="fill:#F9C5C8;" d="M322.634,987.517c-0.82,1.949-2.381,3.997-3.887,4.521c-0.012,0.007-0.024,0.007-0.037,0.013
								c-0.456,0.154-0.912,0.167-1.332-0.013c-1.832-0.771-2.443-4.763-1.37-7.316c0.814-1.943,2.382-3.245,3.887-3.412
								c0.08-0.012,0.167-0.018,0.247-0.018c0.136-0.006,0.271,0,0.407,0.018h0.013c0.24,0.025,0.475,0.086,0.709,0.186
								C323.097,982.266,323.714,984.962,322.634,987.517z"/>
						</g>
					</g>
				</g>
				<g>
					<g>
						<path style="fill:#E4878E;" d="M284.329,986.283c-0.024-0.423-0.171-0.815-0.393-1.177c-0.232-0.348-0.549-0.709-1.073-0.85
							c-0.125-0.041-0.267-0.04-0.403-0.042c-0.13,0.018-0.282,0.043-0.388,0.09c-0.216,0.081-0.437,0.222-0.602,0.419
							c-0.169,0.198-0.25,0.462-0.246,0.695c0.014,0.236,0.089,0.45,0.231,0.611c0.051-0.423,0.223-0.728,0.456-0.849
							c0.118-0.065,0.245-0.119,0.4-0.149c0.136-0.024,0.23-0.031,0.352,0.007c0.238,0.052,0.518,0.252,0.792,0.478
							C283.733,985.747,284.006,986.014,284.329,986.283z"/>
					</g>
					<g>
						<path style="fill:#E4878E;" d="M318.792,986.283c0.024-0.423,0.171-0.815,0.394-1.177c0.232-0.348,0.548-0.709,1.072-0.85
							c0.126-0.041,0.267-0.04,0.403-0.042c0.13,0.018,0.282,0.043,0.388,0.09c0.217,0.081,0.438,0.222,0.602,0.419
							c0.169,0.198,0.25,0.462,0.247,0.695c-0.015,0.236-0.09,0.45-0.231,0.611c-0.051-0.423-0.223-0.728-0.456-0.849
							c-0.118-0.065-0.245-0.119-0.399-0.149c-0.137-0.024-0.23-0.031-0.353,0.007c-0.238,0.052-0.518,0.252-0.792,0.478
							C319.388,985.747,319.114,986.014,318.792,986.283z"/>
					</g>
				</g>
			</g>
			<g>
				<g>
					<path style="fill:#E4878E;" d="M287.191,984.722c1.08,2.554,0.463,6.546-1.363,7.316c-0.031,0.013-0.068,0.025-0.099,0.037
						c-0.809-3.115-1.69-7.07-1.833-10.056c-0.006-0.186-0.019-0.389-0.025-0.599h0.013
						C285.198,981.816,286.481,983.025,287.191,984.722z"/>
				</g>
				<g>
					<path style="fill:#E4878E;" d="M320.562,981.31c-0.007,0.253-0.013,0.488-0.025,0.71c-0.03,0.697-0.104,1.443-0.209,2.221
						c-0.037,0.296-0.081,0.599-0.136,0.901v0.006c-0.352,2.314-0.932,4.793-1.481,6.904c-0.456,0.154-0.912,0.167-1.332-0.013
						c-1.832-0.771-2.443-4.763-1.37-7.316c0.814-1.943,2.382-3.245,3.887-3.412H320.562z"/>
				</g>
			</g>
			<g>
				<g>
					<path style="fill:#F9C5C8;" d="M332.826,1034.539c0.019,0.105-0.056,0.204-0.16,0.204H270.54c-0.111,0-0.191-0.099-0.167-0.204
						c0.222-1.233,0.382-10.679,5.892-14.726c1.049-0.784,2.258-1.339,3.504-1.722l13.579-4.244
						c0.148-0.044,0.277-0.099,0.407-0.167c0.715-0.389,1.141-1.166,1.277-2.018c0.253-1.585,0.364-4.374,0.401-6.829
						c0.006-0.271,0.012-0.543,0.012-0.803c3.307,1.401,6.157,1.944,6.157,1.944s2.838-0.543,6.145-1.938c0,0.006,0,0.006,0,0.012
						c0.025,2.653,0.124,5.941,0.414,7.613c0.073,0.42,0.209,0.809,0.419,1.147c0.037,0.074,0.08,0.143,0.13,0.21
						c0.277,0.389,0.66,0.685,1.142,0.827l13.541,4.231c1.45,0.444,2.82,1.142,4.017,2.092
						C332.523,1024.243,332.61,1033.343,332.826,1034.539z"/>
				</g>
			</g>
			<g>
				<g>
					<path style="fill:#F9C5C8;" d="M301.6,959.506c-18.329-0.719-18.595,16.767-18.321,22.515
						c0.199,4.173,1.838,10.239,2.722,13.251c0.507,1.73,1.427,3.326,2.746,4.584c4.785,4.565,12.854,6.117,12.854,6.117
						s8.069-1.552,12.853-6.117c1.318-1.258,2.238-2.854,2.746-4.584c0.884-3.012,2.523-9.078,2.722-13.251
						C320.194,976.273,319.929,958.788,301.6,959.506z"/>
				</g>
			</g>
			<g>
				<path style="fill:#0C1B84;" d="M326.508,970.103l-4.569,10.435l-2.001,0.775l-0.714-0.993c0,0-4.917-0.143-4.509-7.967
					c0.344-6.584-2.614-6.458-3.338-5.505c-0.63-0.695-6.675-8.826-9.871-5.114c-3.369,3.915-0.109,20.545-13.589,21.741
					c-13.476,1.196-5.215-10.325-5.215-10.325l5.76-13.589l10.543-3.914l16.086,1.632L326.508,970.103z"/>
			</g>
			<g>
				<path style="fill:#FFA515;" d="M333.69,1077.67h-0.002c-4.924,0-9.089-3.643-9.744-8.523l-2.907-21.641l-1.757,30.164h-35.537
					l-1.757-30.164l-2.961,22.047c-0.625,4.647-4.591,8.117-9.28,8.117l0,0c-5.624,0-9.979-4.922-9.294-10.503l4.982-40.63
					c0.727-6.755,6.556-11.885,13.508-11.885h46.084c6.952,0,12.781,5.13,13.508,11.885l4.918,40.104
					C344.169,1072.502,339.596,1077.67,333.69,1077.67z"/>
			</g>
			<g>
				<g>
					<path style="fill:#F9C5C8;" d="M252.093,1083.362h15.278v-1.867c0-3.886-3.151-7.037-7.037-7.037h-1.205
						c-3.886,0-7.037,3.151-7.037,7.037V1083.362z"/>
				</g>
				<g>
					<g>
						<g>
							<path style="fill:#E2E4E6;" d="M268.032,1083.678h-13.173c-0.408,0-0.736-0.358-0.681-0.762c0-0.01,0.005-0.02,0.005-0.029
								c0.129-0.955,0.442-1.85,0.905-2.646c0.397-0.706,0.92-1.333,1.526-1.865c1.283-1.134,2.979-1.819,4.833-1.819
								c1.8,0,3.451,0.651,4.724,1.73c0.617,0.517,1.144,1.139,1.562,1.829c0.498,0.831,0.84,1.766,0.97,2.771
								c0,0.01,0.004,0.02,0.004,0.029C268.763,1083.319,268.439,1083.678,268.032,1083.678z"/>
						</g>
					</g>
					<g>
						<g>
							<g>
								<path style="fill:#B2B2B2;" d="M268.032,1083.678h-13.173c-0.408,0-0.736-0.358-0.681-0.762c0-0.01,0.005-0.02,0.005-0.029
									h14.521c0,0.01,0.004,0.02,0.004,0.029C268.763,1083.319,268.439,1083.678,268.032,1083.678z"/>
							</g>
						</g>
					</g>
					<g>
						<g>
							<g>
								<path style="fill:#FBFBFB;" d="M267.731,1080.116c-0.143,0.096-0.283,0.188-0.416,0.276
									c-2.735,1.805-4.495,2.899-5.87,2.899c-1.347,0-3.076-1.013-5.763-2.681c-0.188-0.116-0.389-0.242-0.597-0.372
									c0.402-0.702,0.921-1.333,1.528-1.862c0.109,0.068,0.218,0.137,0.331,0.205c1.487,0.924,3.738,2.322,4.501,2.322
									c0.757,0,3.042-1.507,4.557-2.507c0.058-0.037,0.112-0.074,0.17-0.112C266.787,1078.804,267.315,1079.425,267.731,1080.116z
									"/>
							</g>
						</g>
					</g>
				</g>
				<g>
					<g>
						<path style="fill:#F9C5C8;" d="M257.479,1080.338c-0.781,0-1.414-0.633-1.414-1.414v-2.917c0-0.781,0.633-1.414,1.414-1.414
							c0.781,0,1.414,0.633,1.414,1.414v2.917C258.893,1079.705,258.26,1080.338,257.479,1080.338z"/>
					</g>
				</g>
				<g>
					<g>
						<path style="fill:#E48788;" d="M258.738,1079.568c-0.234,0.457-0.709,0.771-1.259,0.771c-0.784,0-1.413-0.636-1.413-1.413
							v-2.918c0-0.556,0.314-1.03,0.771-1.259c-0.099,0.191-0.154,0.413-0.154,0.642v2.912c0,0.783,0.635,1.419,1.413,1.419
							C258.331,1079.723,258.546,1079.667,258.738,1079.568z"/>
					</g>
				</g>
				<g>
					<g>
						<path style="fill:#F9C5C8;" d="M260.434,1080.338c-0.781,0-1.414-0.633-1.414-1.414v-2.917c0-0.781,0.633-1.414,1.414-1.414
							c0.781,0,1.414,0.633,1.414,1.414v2.917C261.847,1079.705,261.214,1080.338,260.434,1080.338z"/>
					</g>
				</g>
				<g>
					<g>
						<path style="fill:#E48788;" d="M261.691,1079.568c-0.234,0.457-0.709,0.771-1.258,0.771c-0.784,0-1.413-0.636-1.413-1.413
							v-2.918c0-0.556,0.315-1.03,0.771-1.259c-0.099,0.191-0.154,0.413-0.154,0.642v2.912c0,0.783,0.635,1.419,1.413,1.419
							C261.284,1079.723,261.5,1079.667,261.691,1079.568z"/>
					</g>
				</g>
				<g>
					<g>
						<path style="fill:#F9C5C8;" d="M263.337,1080.338c-0.781,0-1.414-0.633-1.414-1.414v-2.917c0-0.781,0.633-1.414,1.414-1.414
							c0.781,0,1.414,0.633,1.414,1.414v2.917C264.75,1079.705,264.118,1080.338,263.337,1080.338z"/>
					</g>
				</g>
				<g>
					<g>
						<path style="fill:#E48788;" d="M264.595,1079.568c-0.235,0.457-0.709,0.771-1.259,0.771c-0.783,0-1.413-0.636-1.413-1.413
							v-2.918c0-0.556,0.314-1.03,0.771-1.259c-0.099,0.191-0.154,0.413-0.154,0.642v2.912c0,0.783,0.636,1.419,1.413,1.419
							C264.188,1079.723,264.404,1079.667,264.595,1079.568z"/>
					</g>
				</g>
				<g>
					<g>
						<g>
							<path style="fill:#F9C5C8;" d="M263.647,1081.989c0,0.78,0.633,1.413,1.414,1.413h2.917c0.781,0,1.414-0.633,1.414-1.413
								c0-0.781-0.633-1.414-1.414-1.414h-2.917C264.28,1080.575,263.647,1081.208,263.647,1081.989z"/>
						</g>
					</g>
					<g>
						<g>
							<path style="fill:#E48788;" d="M264.417,1080.73c-0.457,0.234-0.771,0.71-0.771,1.259c0,0.783,0.635,1.413,1.413,1.413h2.918
								c0.555,0,1.03-0.315,1.258-0.771c-0.191,0.099-0.414,0.154-0.642,0.154h-2.912c-0.784,0-1.419-0.636-1.419-1.413
								C264.262,1081.138,264.318,1080.922,264.417,1080.73z"/>
						</g>
					</g>
				</g>
				<g>
					<g>
						<path style="fill:#F9C5C8;" d="M254.316,1082.654c-0.707,0-1.28-0.573-1.28-1.279v-2.642c0-0.707,0.573-1.28,1.28-1.28
							s1.28,0.573,1.28,1.28v2.642C255.596,1082.081,255.023,1082.654,254.316,1082.654z"/>
					</g>
				</g>
				<g>
					<g>
						<path style="fill:#E48788;" d="M255.455,1081.958c-0.212,0.413-0.643,0.698-1.14,0.698c-0.709,0-1.279-0.575-1.279-1.279
							v-2.642c0-0.503,0.285-0.933,0.698-1.14c-0.089,0.174-0.14,0.374-0.14,0.581v2.637c0,0.709,0.575,1.284,1.279,1.284
							C255.086,1082.098,255.282,1082.048,255.455,1081.958z"/>
					</g>
				</g>
			</g>
			<g>
				<g>
					<path style="fill:#FFFFFF;" d="M329.774,1037.912h-54.501c-2.487,0-4.511,2.023-4.511,4.511v38.574h63.524v-38.574
						C334.286,1039.936,332.262,1037.912,329.774,1037.912z"/>
				</g>
				<g>
					<path style="fill:#DDE8FF;" d="M333.381,1043.263c-0.15-1.491-1.329-2.713-2.681-2.92c-0.344-0.058-0.648-0.054-1.035-0.029
						l-1.111,0.055l-2.222,0.107l-4.442,0.173l-4.443,0.127c-1.48,0.049-2.962,0.066-4.442,0.094l-4.443,0.073
						c-2.962,0.031-5.924,0.049-8.886,0.043c-2.962-0.005-5.924-0.014-8.886-0.061c-2.962-0.04-5.924-0.075-8.886-0.158
						c-1.481-0.037-2.962-0.064-4.443-0.12l-1.111-0.037l-0.556-0.019l-0.277-0.01c-0.091-0.002-0.156,0.002-0.236,0.002
						c-0.304,0.01-0.608,0.064-0.898,0.171c-0.287,0.111-0.561,0.264-0.807,0.458c-0.499,0.384-0.853,0.952-1.017,1.576
						c-0.034,0.158-0.067,0.317-0.076,0.481c-0.019,0.157-0.019,0.362-0.029,0.541l-0.057,1.111
						c-0.075,1.48-0.155,2.962-0.259,4.442h-0.139c-0.104-1.48-0.184-2.962-0.259-4.442l-0.057-1.111
						c-0.005-0.19-0.022-0.356-0.018-0.568c-0.005-0.208,0.017-0.415,0.044-0.622c0.138-0.822,0.539-1.618,1.167-2.201
						c0.616-0.595,1.451-0.971,2.319-1.051c0.105-0.008,0.225-0.02,0.319-0.022l0.277-0.01l0.556-0.019l1.111-0.037
						c1.481-0.056,2.962-0.083,4.443-0.12c2.962-0.083,5.924-0.118,8.886-0.158c2.962-0.047,5.924-0.056,8.886-0.061
						c2.962-0.006,5.924,0.012,8.886,0.043l4.443,0.073c1.48,0.027,2.962,0.045,4.442,0.094l4.443,0.127l4.442,0.173l2.222,0.107
						l1.111,0.055l0.277,0.014l0.3,0.026c0.102,0.006,0.2,0.03,0.3,0.05s0.197,0.041,0.293,0.074
						c0.776,0.221,1.446,0.718,1.902,1.342C333.194,1041.749,333.411,1042.522,333.381,1043.263z"/>
				</g>
				<g>
					<circle style="fill:#DDE8FF;" cx="302.524" cy="1058.938" r="4.892"/>
				</g>
				<g>
					<path style="fill:#95B4FE;" d="M333.181,1084.435h-61.314c-1.254,0-2.271-1.017-2.271-2.271v-1.135
						c0-0.627,0.508-1.136,1.135-1.136h63.585c0.627,0,1.136,0.509,1.136,1.136v1.135
						C335.452,1083.418,334.436,1084.435,333.181,1084.435z"/>
				</g>
			</g>
			<g>
				<path style="fill:#E48788;" d="M308.58,1012.811c-9.063-0.679-12.209-5.812-13.146-7.977c0.006-0.271,0.012-0.543,0.012-0.803
					c3.307,1.401,6.157,1.944,6.157,1.944s2.838-0.543,6.145-1.938c0,0.006,0,0.006,0,0.012c0.025,2.653,0.124,5.941,0.414,7.613
					C308.234,1012.083,308.37,1012.472,308.58,1012.811z"/>
			</g>
		</g>
	</g>
	<g>
		<g>
			<g>
				<g>
					<g>
						<g>
							<path style="fill:#7BA2FE;" d="M403.426,1094.112v44.586c0,10.624-8.613,19.236-19.237,19.236H206.782
								c-10.624,0-19.237-8.612-19.237-19.236v-44.586H403.426z"/>
						</g>
					</g>
				</g>
			</g>
			<g>
				<g>
					<g>
						<path style="fill:#95B4FE;" d="M416.514,1085.523v6.954c0,0.065,0,0.123-0.008,0.181c-0.09,0.819-0.795,1.458-1.63,1.458
							H175.523c-0.844,0-1.54-0.639-1.63-1.458c-0.008-0.058-0.008-0.115-0.008-0.181v-6.954c0-0.065,0-0.131,0.008-0.188
							c0.098-0.811,0.786-1.45,1.63-1.45h239.353c0.835,0,1.531,0.64,1.63,1.45C416.514,1085.393,416.514,1085.458,416.514,1085.523
							z"/>
					</g>
				</g>
				<g>
					<g>
						<path style="fill:#6E95F7;" d="M191.29,1088.357h-12.998c-0.453,0-0.819-0.366-0.819-0.819c0-0.452,0.367-0.819,0.819-0.819
							h12.998c0.453,0,0.819,0.367,0.819,0.819C192.108,1087.991,191.742,1088.357,191.29,1088.357z"/>
					</g>
				</g>
				<g>
					<g>
						<path style="fill:#DDE8FF;" d="M416.506,1085.335H173.894c0.098-0.811,0.786-1.45,1.63-1.45h239.353
							C415.711,1083.885,416.407,1084.524,416.506,1085.335z"/>
					</g>
				</g>
				<g>
					<g>
						<path style="fill:#6E95F7;" d="M416.506,1092.658c-0.09,0.819-0.795,1.458-1.63,1.458H175.523c-0.844,0-1.54-0.639-1.63-1.458
							H416.506z"/>
					</g>
				</g>
				<g>
					<g>
						<path style="fill:#6E95F7;" d="M411.746,1091.8h-2.841c-0.453,0-0.819-0.366-0.819-0.819s0.366-0.819,0.819-0.819h2.841
							c0.452,0,0.819-0.367,0.819-0.819v-2.321c0-0.452,0.366-0.818,0.819-0.818s0.819,0.366,0.819,0.818v2.321
							C414.204,1090.697,413.102,1091.8,411.746,1091.8z"/>
					</g>
				</g>
			</g>
		</g>
		<g>
			<g>
				<path style="fill:none;stroke:#C1B6A4;stroke-width:2;stroke-linecap:round;stroke-linejoin:round;stroke-miterlimit:10;" d="
					M411.988,1090.98"/>
			</g>
		</g>
	</g>
	<g>
		<g>
			<g>
				<path style="fill:#B0E0E8;" d="M218.991,1056.371c0,0.096-0.005,0.186-0.01,0.281l-1.145,15.972H210.3l-1.145-15.972
					c-0.138-2.5,1.603-4.642,3.959-5.104c0.31-0.057,0.63-0.09,0.954-0.09C216.797,1051.458,218.991,1053.676,218.991,1056.371z"/>
			</g>
		</g>
		<g>
			<g>
				<path style="fill:#CFFBFF;" d="M217.083,1056.371c0,0.096-0.004,0.186-0.009,0.281l-1.145,15.972H210.3l-1.145-15.972
					c-0.138-2.5,1.603-4.642,3.959-5.104C215.38,1051.997,217.083,1054,217.083,1056.371z"/>
			</g>
		</g>
		<g>
			<g>
				<g>
					<path style="fill:#2852D5;" d="M222.724,1067.854l-0.1,1.226l-1.069,13.085c-0.081,0.988-0.911,1.751-1.903,1.751h-11.167
						c-0.992,0-1.822-0.763-1.903-1.751l-1.068-13.085l-0.1-1.226H222.724z"/>
				</g>
			</g>
			<g>
				<g>
					<path style="fill:#3361DF;" d="M217.954,1067.854l-0.1,1.226l-1.068,13.085c-0.082,0.988-0.911,1.751-1.903,1.751h-6.397
						c-0.992,0-1.822-0.763-1.903-1.751l-1.068-13.085l-0.1-1.226H217.954z"/>
				</g>
			</g>
			<g>
				<g>
					<path style="fill:#95B4FE;" d="M214.112,1082.903h-1.795c-0.332,0-0.6-0.269-0.6-0.601c0-0.331,0.268-0.6,0.6-0.6h1.795
						c0.211,0,0.391-0.165,0.408-0.375l0.131-1.62c0.027-0.33,0.319-0.569,0.647-0.55c0.331,0.026,0.576,0.316,0.55,0.646
						l-0.132,1.622C215.648,1082.255,214.943,1082.903,214.112,1082.903z"/>
				</g>
			</g>
		</g>
		<g>
			<g>
				<path style="fill:#95B4FE;" d="M223.707,1068.33v0.272c0,0.262-0.21,0.477-0.478,0.477h-18.323
					c-0.262,0-0.477-0.215-0.477-0.477v-0.272c0-0.262,0.215-0.477,0.477-0.477h18.323
					C223.497,1067.854,223.707,1068.068,223.707,1068.33z"/>
			</g>
		</g>
		<g>
			<g>
				<g>
					<path style="fill:#A1E0BD;" d="M214.069,1060.267c-0.345,0-0.666-0.219-0.778-0.563c-0.141-0.431,0.094-0.893,0.523-1.034
						l3.885-1.271c0.435-0.143,0.894,0.095,1.034,0.523c0.141,0.43-0.094,0.893-0.523,1.033l-3.884,1.271
						C214.24,1060.254,214.153,1060.267,214.069,1060.267z"/>
				</g>
			</g>
			<g>
				<g>
					<path style="fill:#A1E0BD;" d="M216.576,1064.401c-0.14,0-0.281-0.036-0.41-0.111l-1.984-1.151
						c-0.391-0.228-0.525-0.729-0.297-1.12c0.227-0.391,0.729-0.524,1.12-0.298l1.984,1.152c0.391,0.228,0.525,0.729,0.298,1.12
						C217.134,1064.255,216.859,1064.401,216.576,1064.401z"/>
				</g>
			</g>
			<g>
				<g>
					<path style="fill:#A1E0BD;" d="M216.012,1055.735c-0.271,0-0.537-0.135-0.693-0.381c-0.234-0.37-0.135-0.856,0.219-1.107
						c0.23-0.192,1.409-1.422,2.431-2.515c0.31-0.33,0.827-0.349,1.158-0.039c0.331,0.31,0.348,0.828,0.039,1.159
						c-2.376,2.54-2.624,2.696-2.716,2.755C216.314,1055.694,216.162,1055.735,216.012,1055.735z"/>
				</g>
			</g>
			<g>
				<g>
					<path style="fill:#A1E0BD;" d="M212.129,1054.423c-0.284,0-0.56-0.146-0.711-0.411l-1.114-1.939
						c-0.225-0.393-0.089-0.894,0.303-1.118c0.394-0.225,0.893-0.091,1.118,0.302l1.113,1.94c0.226,0.393,0.09,0.894-0.302,1.118
						C212.408,1054.388,212.268,1054.423,212.129,1054.423z"/>
				</g>
			</g>
			<g>
				<g>
					<path style="fill:#A1E0BD;" d="M208.51,1056.054c-0.406,0-0.759-0.303-0.812-0.716c-0.057-0.449,0.261-0.859,0.709-0.916
						l2.505-0.318c0.457-0.053,0.858,0.262,0.916,0.709c0.057,0.449-0.261,0.859-0.71,0.916l-2.504,0.318
						C208.579,1056.051,208.544,1056.054,208.51,1056.054z"/>
				</g>
			</g>
			<g>
				<g>
					<path style="fill:#A1E0BD;" d="M210.42,1060.585c-0.045,0-0.089-0.003-0.135-0.011l-1.909-0.318
						c-0.446-0.074-0.748-0.497-0.673-0.942c0.074-0.446,0.494-0.756,0.942-0.674l1.909,0.318c0.446,0.074,0.748,0.497,0.673,0.942
						C211.161,1060.301,210.813,1060.585,210.42,1060.585z"/>
				</g>
			</g>
			<g>
				<g>
					<path style="fill:#A1E0BD;" d="M208.075,1064.918c-0.309,0-0.604-0.175-0.743-0.473c-0.191-0.41-0.014-0.897,0.396-1.088
						l2.345-1.094c0.41-0.19,0.897-0.013,1.089,0.396c0.191,0.41,0.014,0.897-0.396,1.089l-2.345,1.094
						C208.308,1064.894,208.19,1064.918,208.075,1064.918z"/>
				</g>
			</g>
			<g>
				<g>
					<path style="fill:#A1E0BD;" d="M208.073,1067.064c-0.404,0-0.755-0.298-0.812-0.709c-0.061-0.448,0.254-0.861,0.703-0.922
						l2.345-0.317c0.451-0.06,0.861,0.254,0.922,0.702c0.061,0.448-0.254,0.86-0.703,0.922l-2.345,0.317
						C208.146,1067.063,208.109,1067.064,208.073,1067.064z"/>
				</g>
			</g>
			<g>
				<g>
					<path style="fill:#A1E0BD;" d="M215.584,1067.86c-0.382,0-0.724-0.27-0.802-0.658c-0.089-0.443,0.198-0.875,0.642-0.965
						l2.369-0.477c0.441-0.091,0.875,0.197,0.964,0.642c0.089,0.443-0.198,0.875-0.642,0.965l-2.369,0.477
						C215.692,1067.855,215.638,1067.86,215.584,1067.86z"/>
				</g>
			</g>
			<g>
				<g>
					<path style="fill:#A1E0BD;" d="M220.753,1063.825c-0.111,0-0.225-0.022-0.333-0.071l-2.8-1.252
						c-0.413-0.185-0.599-0.67-0.414-1.082c0.184-0.412,0.666-0.601,1.082-0.414l2.801,1.252c0.413,0.185,0.598,0.67,0.414,1.082
						C221.366,1063.645,221.067,1063.825,220.753,1063.825z"/>
				</g>
			</g>
			<g>
				<g>
					<path style="fill:#A1E0BD;" d="M217.955,1061.42c-0.265,0-0.524-0.128-0.682-0.363c-0.251-0.377-0.15-0.886,0.226-1.137
						l1.728-1.154c0.377-0.251,0.885-0.148,1.137,0.227c0.251,0.377,0.149,0.886-0.227,1.137l-1.728,1.153
						C218.269,1061.376,218.11,1061.42,217.955,1061.42z"/>
				</g>
			</g>
			<g>
				<g>
					<path style="fill:#A1E0BD;" d="M218.569,1056.689c-0.285,0-0.561-0.147-0.712-0.413c-0.225-0.393-0.088-0.894,0.305-1.117
						l1.114-0.636c0.392-0.227,0.893-0.089,1.118,0.305c0.225,0.393,0.088,0.894-0.305,1.117l-1.113,0.636
						C218.847,1056.655,218.707,1056.689,218.569,1056.689z"/>
				</g>
			</g>
			<g>
				<g>
					<path style="fill:#A1E0BD;" d="M213.718,1054.423c-0.453,0-0.819-0.366-0.819-0.818v-3.976c0-0.452,0.367-0.818,0.819-0.818
						s0.819,0.366,0.819,0.818v3.976C214.538,1054.057,214.171,1054.423,213.718,1054.423z"/>
				</g>
			</g>
			<g>
				<g>
					<path style="fill:#A1E0BD;" d="M215.118,1053.27c-0.146,0-0.293-0.039-0.427-0.121c-0.386-0.235-0.507-0.74-0.271-1.126
						l1.144-1.867c0.235-0.386,0.74-0.508,1.126-0.271c0.385,0.235,0.507,0.74,0.27,1.126l-1.144,1.868
						C215.663,1053.131,215.394,1053.27,215.118,1053.27z"/>
				</g>
			</g>
			<g>
				<g>
					<path style="fill:#A1E0BD;" d="M209.764,1062.86c-0.063,0-0.126-0.008-0.19-0.022l-3.876-0.923
						c-0.44-0.105-0.712-0.547-0.607-0.986c0.105-0.441,0.55-0.709,0.986-0.607l3.877,0.923c0.44,0.104,0.712,0.547,0.607,0.986
						C210.47,1062.607,210.134,1062.86,209.764,1062.86z"/>
				</g>
			</g>
			<g>
				<g>
					<path style="fill:#A1E0BD;" d="M209.763,1058.995c-0.108,0-0.217-0.021-0.323-0.066l-2.684-1.153
						c-0.416-0.178-0.608-0.659-0.43-1.075c0.179-0.416,0.659-0.605,1.076-0.43l2.684,1.152c0.416,0.179,0.608,0.66,0.43,1.076
						C210.382,1058.81,210.08,1058.995,209.763,1058.995z"/>
				</g>
			</g>
			<g>
				<g>
					<path style="fill:#A1E0BD;" d="M210.418,1054.423c-0.124,0-0.25-0.027-0.369-0.088l-2.594-1.312
						c-0.404-0.204-0.566-0.697-0.362-1.101c0.204-0.404,0.697-0.565,1.101-0.362l2.594,1.313c0.404,0.204,0.566,0.696,0.362,1.101
						C211.006,1054.259,210.718,1054.423,210.418,1054.423z"/>
				</g>
			</g>
			<g>
				<g>
					<path style="fill:#A1E0BD;" d="M221.629,1065.677h-4.339c-0.453,0-0.819-0.366-0.819-0.819c0-0.452,0.367-0.819,0.819-0.819
						h4.339c0.453,0,0.819,0.367,0.819,0.819C222.449,1065.311,222.083,1065.677,221.629,1065.677z"/>
				</g>
			</g>
			<g>
				<g>
					<path style="fill:#A1E0BD;" d="M213.114,1066.905c-0.173,0-0.346-0.054-0.495-0.166c-0.36-0.273-0.431-0.788-0.157-1.148
						l0.603-0.794c0.274-0.361,0.788-0.43,1.148-0.157c0.361,0.273,0.431,0.787,0.158,1.147l-0.604,0.794
						C213.606,1066.794,213.361,1066.905,213.114,1066.905z"/>
				</g>
			</g>
			<g>
				<g>
					<path style="fill:#A1E0BD;" d="M213.115,1063.487c-0.199,0-0.399-0.072-0.557-0.219l-0.986-0.914
						c-0.332-0.308-0.351-0.825-0.044-1.157c0.308-0.333,0.826-0.353,1.158-0.044l0.986,0.914c0.332,0.309,0.351,0.825,0.044,1.157
						C213.554,1063.399,213.335,1063.487,213.115,1063.487z"/>
				</g>
			</g>
			<g>
				<g>
					<path style="fill:#A1E0BD;" d="M212.844,1058.419c-0.321,0-0.626-0.19-0.757-0.506l-0.715-1.73
						c-0.173-0.417,0.025-0.896,0.444-1.069c0.417-0.171,0.897,0.026,1.069,0.444l0.715,1.729c0.173,0.417-0.025,0.896-0.444,1.069
						C213.054,1058.399,212.949,1058.419,212.844,1058.419z"/>
				</g>
			</g>
			<g>
				<g>
					<path style="fill:#A1E0BD;" d="M213.717,1057.554c-0.384,0-0.726-0.27-0.803-0.66c-0.087-0.444,0.202-0.875,0.646-0.962
						l1.973-0.389c0.449-0.09,0.875,0.202,0.962,0.646c0.087,0.444-0.202,0.875-0.646,0.963l-1.973,0.388
						C213.823,1057.55,213.77,1057.554,213.717,1057.554z"/>
				</g>
			</g>
		</g>
		<g>
			<g>
				<path style="fill:#95B4FE;" d="M207.359,1072.926c-0.422,0-0.781-0.323-0.816-0.752l-0.1-1.226
					c-0.019-0.229,0.059-0.454,0.214-0.622s0.374-0.264,0.603-0.264h5.007c0.453,0,0.819,0.366,0.819,0.819
					c0,0.452-0.366,0.818-0.819,0.818h-4.118l0.028,0.341c0.037,0.45-0.299,0.846-0.75,0.883
					C207.403,1072.926,207.381,1072.926,207.359,1072.926z"/>
			</g>
		</g>
	</g>
</g>
</svg>
